<?xml version="1.0" standalone="no"?>
<!DOCTYPE svg PUBLIC "-//W3C//DTD SVG 20010904//EN"
 "http://www.w3.org/TR/2001/REC-SVG-20010904/DTD/svg10.dtd">
<svg version="1.0" xmlns="http://www.w3.org/2000/svg"
 width="875.000000pt" height="1280.000000pt" viewBox="0 0 875.000000 1280.000000"
 preserveAspectRatio="xMidYMid meet">
<metadata>
Created by potrace 1.15, written by Peter Selinger 2001-2017
</metadata>
<g transform="translate(0.000000,1280.000000) scale(0.100000,-0.100000)"
fill="#000000" stroke="none">
<path d="M6217 12791 c-36 -12 -114 -83 -150 -138 -16 -24 -40 -52 -53 -62
-28 -22 -88 -103 -108 -146 -8 -16 -22 -56 -31 -88 -16 -54 -16 -61 -1 -90 11
-24 16 -69 19 -172 3 -148 6 -160 60 -227 30 -38 30 -38 14 -75 -9 -21 -21
-58 -26 -83 -17 -78 -97 -125 -256 -150 -96 -15 -126 -29 -161 -75 -14 -19
-35 -35 -45 -35 -10 0 -21 -4 -24 -10 -3 -5 -30 -10 -58 -10 -72 0 -170 -17
-246 -42 -90 -29 -137 -57 -261 -156 -30 -24 -84 -58 -120 -75 -44 -21 -87
-53 -138 -104 -40 -40 -87 -80 -103 -89 -17 -8 -37 -30 -45 -49 -8 -19 -27
-41 -44 -50 -16 -8 -33 -21 -37 -29 -4 -8 -24 -31 -43 -52 -73 -81 -130 -166
-130 -196 0 -26 -135 -287 -152 -293 -9 -3 -23 -25 -31 -48 -38 -104 -56 -148
-74 -174 -11 -15 -34 -68 -53 -118 -18 -49 -44 -108 -56 -130 -12 -22 -25 -51
-29 -65 -5 -14 -15 -36 -24 -50 -23 -35 -38 -79 -76 -220 -18 -69 -42 -145
-53 -170 -11 -25 -26 -74 -32 -109 -6 -36 -20 -72 -31 -85 -11 -11 -34 -49
-51 -83 -17 -35 -37 -68 -45 -75 -8 -6 -24 -30 -35 -52 -11 -23 -29 -51 -38
-63 -10 -13 -21 -42 -24 -67 -4 -27 -16 -52 -32 -67 -13 -12 -31 -44 -38 -69
-8 -26 -28 -71 -45 -101 -17 -31 -40 -81 -50 -112 -21 -60 -67 -145 -88 -162
-31 -25 -43 -172 -18 -232 10 -23 12 -40 6 -47 -6 -7 -15 -34 -21 -61 -6 -28
-19 -55 -31 -63 -11 -7 -40 -54 -64 -103 l-45 -89 0 -115 c0 -100 -3 -119 -20
-143 -45 -60 -61 -213 -101 -977 -13 -236 -13 -222 -4 -331 6 -73 5 -97 -8
-120 -8 -16 -19 -51 -25 -79 -6 -27 -17 -70 -25 -95 -40 -123 -80 -441 -97
-775 -6 -121 -13 -225 -15 -231 -13 -41 -377 -50 -580 -15 -33 6 -125 15 -205
21 -460 32 -504 37 -545 58 -23 11 -47 33 -55 49 -8 15 -24 42 -36 58 -12 17
-29 47 -38 69 -9 21 -33 55 -54 76 -41 42 -61 46 -240 56 -87 5 -94 4 -121
-19 -16 -13 -41 -29 -57 -35 -37 -16 -99 -110 -193 -297 -22 -44 -64 -116 -92
-160 -28 -44 -91 -145 -139 -225 -49 -80 -101 -163 -117 -185 -97 -138 -187
-354 -215 -516 -8 -46 -13 -167 -13 -319 0 -279 1 -282 83 -361 54 -53 81 -69
137 -82 59 -14 167 -20 174 -10 3 4 19 13 36 18 33 11 87 78 140 171 19 34 41
64 49 67 7 3 28 30 45 61 17 30 51 76 74 103 80 90 147 199 147 238 0 8 8 15
19 15 13 0 24 -14 36 -45 19 -50 55 -99 89 -118 25 -14 507 -29 966 -30 282 0
834 16 950 28 156 16 229 28 265 45 22 10 76 30 120 44 44 15 91 38 105 51 15
14 30 25 34 25 4 0 55 43 112 97 113 105 149 160 160 248 7 52 18 77 59 134
14 19 25 43 25 55 0 12 12 29 29 40 20 14 52 65 105 170 42 83 76 157 76 165
0 7 16 31 35 52 19 22 35 44 35 49 0 19 58 136 74 149 9 8 16 18 16 24 0 6 16
42 35 81 34 70 61 136 95 229 10 27 22 53 29 60 6 6 11 22 11 36 0 25 16 60
22 51 15 -24 68 -141 73 -162 4 -15 13 -32 21 -39 8 -6 14 -22 14 -34 0 -13
16 -42 35 -65 19 -23 35 -48 35 -56 0 -8 26 -69 59 -137 32 -67 75 -158 96
-202 21 -44 43 -87 50 -95 7 -8 15 -28 19 -43 4 -15 16 -35 27 -45 11 -9 27
-40 35 -69 8 -28 21 -57 29 -63 8 -7 15 -17 15 -21 0 -5 18 -38 40 -73 30 -47
40 -74 40 -104 0 -23 7 -62 16 -88 13 -38 14 -55 5 -88 -6 -23 -15 -90 -21
-151 -5 -60 -16 -127 -25 -149 -12 -29 -16 -68 -14 -165 1 -94 -3 -141 -16
-186 -10 -36 -20 -119 -24 -210 -6 -122 -11 -159 -29 -199 -12 -27 -22 -60
-22 -75 -1 -14 -9 -51 -20 -81 -11 -30 -20 -71 -20 -90 0 -19 -4 -51 -10 -70
-23 -85 -28 -167 -14 -240 14 -75 11 -94 -37 -256 -5 -17 -9 -39 -9 -50 0 -11
-4 -24 -9 -30 -5 -5 -21 -70 -35 -144 -24 -120 -31 -141 -66 -192 -22 -31 -40
-65 -40 -75 0 -10 -6 -28 -14 -39 -8 -11 -17 -36 -21 -56 -4 -23 -17 -43 -36
-57 -16 -12 -29 -28 -29 -35 0 -7 -6 -19 -14 -25 -11 -10 -16 -8 -21 9 -11 34
-81 134 -104 148 -11 6 -37 37 -57 67 -20 30 -40 55 -44 55 -3 0 -25 16 -47
35 -23 19 -51 35 -62 35 -12 0 -24 7 -27 15 -9 22 -113 81 -159 89 -22 4 -60
14 -85 23 -30 10 -104 17 -219 20 -155 6 -176 8 -194 26 -16 16 -28 18 -66 13
-53 -7 -71 -26 -71 -73 0 -31 4 -35 85 -75 67 -33 82 -44 74 -55 -7 -7 -32
-13 -59 -13 -77 0 -247 -97 -350 -200 -90 -90 -182 -269 -201 -390 -16 -102
-7 -317 15 -361 9 -17 16 -38 16 -45 0 -7 25 -61 55 -121 56 -110 59 -113 223
-263 18 -16 37 -30 42 -30 5 0 14 -8 19 -18 5 -9 24 -24 43 -33 145 -71 186
-83 231 -71 19 5 40 6 47 2 7 -4 20 -6 29 -4 135 25 387 65 439 69 12 1 28 7
35 14 15 15 -6 31 -43 31 -24 0 -24 1 13 35 21 19 42 35 46 35 5 0 21 18 36
40 15 22 33 40 39 40 6 0 29 25 51 55 22 30 42 55 45 55 3 0 14 22 25 50 11
27 22 50 26 50 12 0 29 61 29 103 l0 40 400 -6 c282 -5 407 -10 423 -19 16 -8
198 -13 702 -15 547 -3 688 -7 721 -18 28 -9 103 -15 231 -17 l190 -3 27 25
c31 28 76 114 76 146 0 12 14 39 31 60 17 22 37 51 45 66 8 16 21 28 30 28 8
0 24 16 35 35 12 19 27 35 33 35 7 0 25 22 40 50 51 93 127 197 188 257 13 13
31 31 40 40 27 27 109 122 152 176 43 54 61 53 52 -5 -10 -62 -32 -95 -71
-108 -19 -6 -44 -23 -55 -38 -12 -14 -35 -34 -52 -44 -46 -28 -127 -115 -143
-154 -7 -18 -23 -44 -35 -56 -11 -12 -25 -40 -31 -61 -6 -21 -19 -56 -31 -78
-25 -49 -42 -281 -28 -392 14 -110 57 -236 94 -273 17 -17 42 -53 56 -80 28
-53 64 -91 96 -100 11 -3 28 -18 37 -34 10 -16 27 -32 40 -36 12 -4 38 -20 58
-35 20 -16 43 -29 50 -29 7 0 23 -10 37 -22 23 -22 31 -23 185 -22 195 0 310
9 315 23 8 24 47 63 95 96 29 19 69 50 91 70 21 20 49 43 62 52 38 24 172 231
189 290 8 29 22 77 30 105 12 42 14 83 9 203 -10 220 -44 320 -153 455 -24 30
-54 62 -66 72 -12 9 -36 30 -53 46 -17 16 -57 39 -89 51 -32 13 -77 31 -101
42 -23 10 -56 19 -72 19 -34 0 -70 30 -70 59 0 10 -9 30 -20 44 -11 14 -20 35
-20 47 0 12 -9 42 -19 68 -11 27 -22 85 -26 135 -3 48 -13 131 -20 183 -8 53
-12 106 -9 118 3 12 -2 38 -11 58 -11 27 -15 72 -15 158 0 106 -2 122 -20 140
-15 15 -22 43 -30 132 -12 124 -31 237 -60 368 -22 100 -40 228 -40 287 0 23
-4 52 -9 65 -5 13 -17 78 -26 144 -10 65 -24 128 -31 139 -10 14 -14 53 -14
131 0 69 -6 129 -15 160 -8 27 -15 70 -15 95 0 25 -9 117 -20 205 -11 87 -20
181 -20 207 0 27 -4 57 -10 67 -11 21 -40 283 -39 356 0 27 -3 68 -6 92 -8 50
2 67 45 76 59 11 62 94 5 116 -11 5 -35 14 -54 21 -18 7 -42 26 -52 42 -16 27
-16 33 -3 58 8 15 14 38 14 51 0 37 -30 168 -45 197 -20 40 -63 212 -70 284
-4 34 -11 76 -15 92 -5 17 -16 84 -25 150 -32 244 -43 311 -54 338 -6 16 -11
57 -11 92 0 35 -9 110 -20 167 -12 56 -23 158 -27 224 l-6 122 31 16 c18 9 38
29 47 45 16 32 27 35 173 49 75 8 86 12 118 43 50 48 71 86 80 144 4 27 16 63
28 78 29 40 36 179 11 228 -22 44 -55 79 -73 79 -8 0 -31 19 -52 42 -38 41
-52 45 -115 36 -18 -3 -20 4 -25 89 -5 85 -7 95 -32 118 -17 16 -28 36 -28 52
0 15 -9 46 -21 70 -11 23 -27 77 -34 119 -15 84 -22 96 -86 127 -34 17 -50 34
-69 73 -14 27 -35 60 -47 72 -12 11 -25 38 -29 59 -4 21 -11 44 -17 51 -5 7
-14 35 -18 62 -4 28 -19 64 -33 83 -14 19 -26 43 -26 55 0 11 -6 27 -14 34 -7
8 -16 50 -20 98 -12 135 -24 180 -52 190 -16 6 -24 17 -24 32 0 13 -6 43 -14
68 -7 25 -16 70 -20 100 -4 30 -13 78 -21 105 -27 95 -47 237 -50 353 -1 65
-8 155 -15 202 -7 47 -16 126 -20 175 -15 183 -43 380 -55 395 -7 8 -15 43
-19 78 l-6 62 205 0 204 0 16 30 c8 16 15 38 15 48 0 11 13 44 30 75 31 58 64
167 75 249 5 42 10 50 41 64 21 10 45 34 60 60 23 39 30 44 82 54 70 13 83 20
102 53 12 22 12 33 2 69 -7 24 -19 79 -28 123 -8 44 -24 92 -35 107 -10 15
-19 30 -19 33 0 3 20 5 45 5 63 0 95 17 95 50 0 32 -24 56 -65 66 -63 15 -67
20 -44 59 11 19 24 56 28 82 5 35 11 47 22 44 8 -2 62 -6 120 -9 l105 -4 41
46 c52 59 73 103 73 154 0 48 -26 71 -112 101 -92 33 -132 53 -166 82 -18 16
-36 29 -41 29 -5 0 -24 12 -44 28 -19 15 -50 36 -68 47 -18 11 -49 30 -69 43
-50 32 -145 79 -188 93 -20 6 -44 17 -52 24 -39 31 -150 91 -219 117 -104 40
-316 68 -556 73 -104 3 -203 1 -218 -4z m110 -4523 c12 -31 26 -63 32 -70 7
-7 17 -21 24 -31 9 -12 31 -20 70 -24 50 -5 57 -9 57 -27 0 -12 17 -42 38 -68
20 -26 45 -58 54 -72 10 -13 31 -27 48 -31 49 -11 98 -83 88 -132 -2 -14 -16
-19 -59 -24 -31 -3 -61 -9 -67 -13 -18 -11 -60 12 -74 40 -19 39 -56 62 -118
74 -39 7 -62 18 -81 39 -14 16 -49 39 -76 51 -29 12 -56 32 -64 46 -7 14 -26
35 -41 46 -39 27 -36 53 17 134 24 38 45 77 45 87 0 9 4 25 9 35 13 26 38 85
47 107 5 15 10 3 19 -45 7 -36 21 -91 32 -122z m-406 -833 c86 -15 230 -62
271 -89 13 -8 42 -20 64 -26 35 -11 47 -10 74 4 37 18 35 19 107 -46 22 -20
61 -42 85 -48 65 -17 93 -33 96 -57 5 -32 29 -47 130 -78 51 -16 100 -37 109
-47 11 -12 30 -18 59 -18 58 0 104 39 118 101 22 88 48 31 66 -138 7 -59 19
-135 27 -168 15 -61 32 -184 58 -429 8 -77 22 -190 30 -250 25 -175 44 -313
60 -426 22 -163 34 -240 45 -300 17 -95 16 -250 -3 -294 -26 -58 -22 -117 12
-184 27 -54 46 -145 76 -367 4 -27 13 -61 20 -75 7 -14 15 -72 18 -130 3 -58
15 -184 27 -280 11 -96 27 -232 35 -302 7 -70 18 -151 24 -180 5 -29 13 -91
16 -138 6 -85 32 -280 60 -460 8 -52 15 -121 15 -152 0 -56 -1 -58 -27 -58
-15 0 -37 -10 -50 -22 -21 -19 -23 -30 -23 -112 0 -78 3 -93 22 -113 13 -14
33 -23 52 -23 17 0 36 -4 43 -8 7 -5 16 -67 23 -172 9 -138 14 -169 30 -192
27 -36 25 -54 -6 -83 -15 -14 -37 -40 -50 -57 -14 -18 -55 -65 -92 -105 -109
-117 -180 -196 -201 -223 -19 -24 -23 -25 -113 -22 -77 3 -98 1 -111 -12 -8
-9 -25 -16 -35 -16 -38 0 -52 -11 -52 -42 0 -44 16 -65 55 -72 42 -8 44 -16 8
-42 -75 -53 -115 -60 -221 -38 -29 5 -38 2 -65 -24 -18 -16 -47 -33 -64 -37
-18 -3 -43 -19 -55 -35 -13 -15 -33 -33 -45 -39 -15 -8 -23 -21 -23 -39 0 -15
-3 -37 -6 -50 -6 -22 -6 -22 -41 8 -33 29 -37 30 -131 30 -61 0 -102 4 -110
12 -23 23 -179 71 -262 81 -47 5 -92 15 -100 22 -8 6 -23 15 -32 18 -22 8 -22
24 -3 70 12 28 15 81 15 234 0 208 1 211 55 348 13 34 29 97 35 140 20 139 22
150 32 162 13 16 48 160 48 198 0 17 7 55 16 85 43 152 62 287 68 485 4 110
11 216 16 235 5 19 14 87 20 150 6 63 18 137 27 164 14 41 17 97 17 311 0 153
-4 285 -11 320 -6 33 -16 103 -22 155 -34 293 -42 345 -61 376 -11 17 -20 41
-20 53 0 28 -20 111 -32 135 -5 10 -11 35 -13 55 -2 20 -10 53 -19 73 -9 21
-16 41 -16 46 0 5 -8 24 -17 42 -9 19 -18 45 -19 59 -6 64 -18 107 -31 118
-12 9 -14 23 -9 56 5 30 2 52 -9 73 -8 16 -15 52 -15 79 0 33 -7 60 -20 80
-11 17 -20 40 -20 52 0 12 -10 48 -22 80 -12 32 -21 61 -20 66 3 11 -35 77
-56 97 -12 11 -22 39 -26 72 -4 29 -16 69 -27 88 -12 19 -25 58 -29 88 -5 29
-20 77 -33 105 -28 61 -44 120 -52 198 -5 45 -16 72 -54 130 -27 41 -52 85
-56 99 -4 14 -14 36 -22 49 -21 33 -10 87 31 159 19 32 38 71 42 88 4 16 10
34 15 39 10 14 46 122 53 162 3 18 21 55 39 82 19 27 37 61 41 75 8 31 26 33
147 11z m-2317 -6031 c9 -3 16 -12 16 -19 0 -7 7 -18 15 -25 11 -9 15 -33 15
-90 0 -148 -18 -176 -74 -118 -19 19 -48 38 -65 41 -17 4 -44 18 -59 32 -15
14 -36 28 -47 31 -25 8 -65 44 -65 59 0 15 53 45 82 45 12 0 52 11 88 24 76
28 74 28 94 20z m419 -258 c15 -27 27 -52 27 -57 0 -12 -171 -11 -189 0 -9 6
-12 19 -8 37 7 39 36 144 43 155 8 14 98 -80 127 -135z m4195 82 c4 -23 -27
-128 -39 -128 -5 0 -8 32 -7 75 3 69 5 75 23 73 11 -2 21 -10 23 -20z m-428
-223 c62 -62 53 -94 -33 -110 -26 -5 -46 -18 -64 -41 -21 -28 -32 -34 -64 -34
-21 0 -41 -5 -44 -10 -10 -15 -35 8 -35 31 0 25 29 97 52 131 10 14 18 32 18
40 0 8 14 33 32 56 l32 42 33 -33 c18 -17 50 -50 73 -72z m-4550 65 c34 -11
69 -20 76 -20 7 0 18 -9 24 -19 5 -11 24 -28 40 -38 41 -24 38 -39 -12 -64
-43 -21 -178 -152 -178 -171 0 -5 -5 -8 -11 -6 -21 7 -51 113 -56 200 -5 83
-5 87 20 112 14 14 28 26 30 26 3 0 33 -9 67 -20z m5240 -108 c19 -62 27 -182
14 -216 -7 -20 -64 -21 -128 -4 -36 9 -50 9 -69 -1 -20 -11 -28 -11 -46 0 -21
14 -28 29 -12 29 4 0 23 28 41 63 50 95 101 180 123 204 19 22 22 22 39 6 10
-9 27 -45 38 -81z m-4957 -337 c36 -72 68 -140 72 -153 9 -30 -10 -52 -44 -52
-30 0 -158 63 -184 91 -10 10 -24 19 -32 19 -27 0 -16 28 44 107 32 43 62 88
66 101 4 13 8 22 11 20 2 -2 32 -62 67 -133z m489 114 l56 -11 -10 -32 c-6
-17 -26 -48 -45 -69 -18 -20 -33 -44 -33 -52 0 -19 -57 -55 -87 -55 -31 0 -77
43 -101 94 -12 24 -28 46 -36 49 -10 4 -16 18 -16 36 0 26 5 32 33 40 45 13
173 13 239 0z m3838 -236 c0 -155 -1 -163 -21 -174 -18 -9 -27 -6 -58 20 -20
17 -53 42 -73 56 -23 15 -40 36 -44 53 -7 34 -11 43 -26 64 -16 22 10 52 66
77 23 10 47 25 55 34 7 10 19 17 26 17 7 0 23 9 36 19 17 14 26 16 31 8 4 -7
8 -85 8 -174z m263 63 c18 -7 59 -18 92 -24 126 -22 155 -32 161 -58 9 -34 -2
-54 -28 -54 -13 0 -29 -9 -35 -19 -7 -11 -46 -36 -87 -56 -71 -35 -77 -36
-112 -23 -46 16 -54 38 -54 147 0 109 3 114 63 87z"/>
</g>
</svg>
